PathFileType	4	(X/Y/Z)	D:\TRACE\v60_Jaco2_6-2-23\v60_baseline_1-platform.trc
DataRate	CameraRate	NumFrames	NumMarkers	Units	OrigDataRate	OrigDataStartFrame	OrigNumFrames
100.00	100.00	      74	5	mm	100.00	4689	      6251
Frame#	Time	Left_Front			Right_Front			Left_Aft			Right_Aft			Post			
		X1	Y1	Z1	X2	Y2	Z2	X3	Y3	Z3	X4	Y4	Z4	X5	Y5	Z5	

4689	46.880	-800.54010	8.87631	-638.91675	769.37769	10.18949	-644.37061	-708.63953	7.83774	496.19159	733.73743	6.83191	505.57941	-14.16155	1308.46399	-962.04840	
4690	46.890	-800.52136	8.78658	-639.03467	769.41107	10.14329	-644.37079	-708.87982	8.19931	496.02118	733.77747	6.81438	505.55499	-14.14552	1308.36108	-962.12000	
4691	46.900	-800.48584	8.79549	-639.01532	769.36212	10.12517	-644.37000	-708.72314	8.02752	496.08472	733.84644	6.81726	505.54636	-14.04578	1308.26477	-961.99292	
4692	46.910	-800.52393	8.87822	-638.93616	769.42047	10.11629	-644.38098	-708.67377	8.07014	496.16824	733.83569	6.87612	505.58273	-14.06483	1308.23975	-961.96936	
4693	46.920	-800.55597	8.97899	-638.84338	769.35229	10.18809	-644.40820	-708.63202	8.05585	496.17270	733.77863	6.87724	505.59265	-14.18474	1308.25244	-961.84344	
4694	46.930	-800.59949	8.86832	-638.89441	769.42206	10.22806	-644.41388	-708.68927	8.09215	496.13065	733.76373	6.85924	505.60959	-14.22056	1308.24316	-961.63678	
4695	46.940	-800.55688	8.80023	-638.96570	769.39575	10.16787	-644.43225	-708.68890	8.04272	496.16434	733.79443	6.83074	505.56262	-14.18709	1308.16028	-961.46613	
4696	46.950	-800.50702	8.75987	-639.04468	769.39734	10.08944	-644.39227	-708.68176	8.01019	496.16779	733.81348	6.81804	505.53494	-14.15049	1308.17078	-961.37952	
4697	46.960	-800.48883	8.86307	-638.98566	769.38239	10.09889	-644.37158	-708.74237	8.05334	496.13519	733.81061	6.80338	505.53458	-14.18935	1308.24194	-961.42206	
4698	46.970	-800.55695	8.94202	-638.89258	769.37274	10.13700	-644.42151	-708.71069	8.02164	496.14301	733.80865	6.77965	505.57391	-14.19662	1308.28259	-961.51672	
4699	46.980	-800.57043	8.92876	-638.85840	769.43335	10.25080	-644.35211	-708.71173	8.02126	496.10922	733.76709	6.80547	505.57758	-14.31019	1308.35449	-961.57727	
4700	46.990	-800.59253	8.88935	-638.86603	769.43524	10.19971	-644.40326	-708.72443	8.04003	496.16632	733.60840	6.68562	505.55072	-14.24624	1308.28552	-961.51886	
4701	47.000	-800.50763	8.80023	-638.94611	769.36694	10.17748	-644.39160	-708.74011	8.06755	496.11731	733.20801	6.35263	505.15036	-14.16368	1308.22949	-961.46124	
4702	47.010	-800.48035	8.78135	-638.99756	769.41199	10.13026	-644.38434	-708.68530	8.04581	496.12549	732.68823	5.88595	504.65286	-14.07605	1308.23315	-961.45715	
4703	47.020	-800.49512	8.86443	-638.99017	769.36920	10.14107	-644.43481	-708.73071	8.09188	496.12735	733.36011	6.45574	504.84982	-14.19284	1308.22803	-961.57507	
4704	47.030	-800.57062	8.90408	-638.88544	769.37860	10.15517	-644.38184	-708.77209	8.10913	496.11957	733.31354	6.38310	504.75439	-14.19322	1308.26038	-961.73108	
4705	47.040	-800.57703	8.88412	-638.89417	769.41327	10.18637	-644.37341	-708.75861	8.10690	496.08884	733.27246	6.31182	504.74460	-14.17942	1308.28516	-961.85651	
4706	47.050	-800.51013	8.82125	-638.93030	769.39404	10.16737	-644.42108	-708.74640	8.08098	496.14749	733.07336	6.08944	504.62903	-14.16068	1308.33325	-961.95947	
4707	47.060	-800.51410	8.85376	-639.02240	769.38495	10.15009	-644.40863	-708.72070	8.02885	496.08746	732.74237	5.75341	504.45132	-14.05429	1308.33691	-961.93915	
4708	47.070	-800.46259	8.99937	-638.99133	769.45178	10.12494	-644.37946	-708.67847	8.01779	496.14297	732.71136	5.73605	504.40695	-14.12290	1308.36633	-961.82758	
4709	47.080	-800.47247	9.24982	-638.84296	769.41272	10.21847	-644.42334	-708.68365	8.02842	496.13382	732.83191	5.83918	504.50711	-14.13226	1308.33691	-961.68707	
4710	47.090	-800.49786	9.17142	-638.79211	769.39789	10.29655	-644.43933	-708.73816	7.93879	496.14291	732.88525	5.85362	504.51566	-14.20443	1308.23010	-961.43872	
4711	47.100	-800.53723	8.91686	-638.90802	769.45990	9.99519	-644.33057	-708.73901	7.89201	496.13229	733.24609	6.69977	505.24667	-14.53890	1308.25256	-961.16833	
4712	47.110	-800.53217	8.65728	-639.06732	769.48553	9.90151	-644.33704	-708.85028	8.22760	496.01410	733.29242	6.82569	505.23578	-14.38343	1308.11279	-960.93079	
4713	47.120	-800.49060	8.70278	-639.09827	769.46423	10.03851	-644.36224	-708.90619	8.21253	495.88431	733.36761	6.81777	505.20731	-13.99585	1308.06909	-960.92920	
4714	47.130	-800.47198	8.95577	-638.95148	769.38641	10.03379	-644.38763	-708.73456	7.91202	496.00168	733.30481	6.78451	505.19824	-14.23661	1308.04407	-961.30634	
4715	47.140	-800.48651	9.13081	-638.81787	769.44202	10.05479	-644.35938	-708.76923	8.07906	495.86243	733.16895	6.70409	505.21527	-14.14504	1308.12939	-961.81635	
4716	47.150	-800.53107	9.08280	-638.79724	769.41760	10.06893	-644.32678	-708.52289	7.70975	496.16800	732.77789	6.65247	505.38541	-14.11298	1308.25708	-962.24133	
4717	47.160	-800.52509	8.91085	-638.90387	769.44397	10.10776	-644.34021	-708.56097	7.70734	496.13400	733.17926	6.71898	505.23706	-14.00435	1308.32727	-962.45813	
4718	47.170	-800.50830	8.82971	-639.01855	769.43896	10.10987	-644.37085	-708.57886	7.60907	496.06973	733.22870	6.73467	505.25107	-14.03891	1308.37183	-962.46503	
4719	47.180	-800.42889	9.04356	-638.96936	769.36670	10.03214	-644.35565	-708.56598	7.50132	496.08237	733.17780	6.67503	505.25589	-14.00277	1308.31506	-962.40161	
4720	47.190	-800.44366	9.15366	-638.85315	769.38354	10.04117	-644.36774	-708.53351	7.63707	496.12518	733.13788	6.67435	505.21860	-14.08565	1308.26404	-962.14166	
4721	47.200	-800.47626	9.09516	-638.78992	769.41321	10.06705	-644.39130	-708.21075	7.22062	496.63141	733.14471	6.65724	505.23740	-14.17084	1308.24683	-961.75458	
4722	47.210	-800.55548	8.95513	-638.89130	769.34509	10.18851	-644.44019	-708.47400	7.60976	496.29755	733.15942	6.72357	505.24149	-14.32418	1308.16003	-961.31165	
4723	47.220	-800.53082	8.90084	-638.96466	769.33728	10.09094	-644.42499	-708.55762	7.68477	496.13522	733.22766	6.76235	505.22061	-14.33039	1308.12292	-961.05823	
4724	47.230	-800.47607	8.89014	-639.03607	769.40717	10.03099	-644.33997	-708.61176	7.70781	496.11270	733.33673	6.84861	505.25967	-14.27659	1308.11011	-960.79266	
4725	47.240	-800.39911	8.98435	-638.92419	769.41949	10.02482	-644.35797	-708.69049	7.90864	496.12375	733.29999	6.77522	505.24387	-14.27764	1308.13855	-960.90393	
4726	47.250	-800.44385	9.02971	-638.87024	769.33490	10.03219	-644.36938	-708.70459	7.95812	496.16217	732.82037	6.66958	505.36792	-14.22328	1308.15894	-961.25195	
4727	47.260	-800.45795	9.06098	-638.82861	769.38702	10.11383	-644.37079	-708.68323	7.95934	496.14590	733.21448	6.67029	505.22916	-14.12858	1308.31030	-961.71820	
4728	47.270	-800.49335	9.03931	-638.89838	769.40741	10.16247	-644.38892	-708.76355	7.99014	496.13614	733.19208	6.69482	505.24380	-14.17495	1308.39819	-962.07086	
4729	47.280	-800.45917	9.00496	-639.00519	769.38275	10.07862	-644.38892	-708.66034	7.83648	496.15164	733.34338	6.77802	505.25879	-14.14850	1308.38110	-962.21350	
4730	47.290	-800.44629	8.92894	-639.01874	769.31036	10.04934	-644.40057	-708.60034	7.70825	496.20456	733.26587	6.72585	505.23862	-14.10319	1308.25793	-962.17273	
4731	47.300	-800.45203	8.90591	-638.98639	769.35004	10.03739	-644.36652	-708.44904	7.54889	496.28540	733.17401	6.66083	505.25299	-14.08089	1308.14417	-962.06122	
4732	47.310	-800.52954	8.98840	-638.88733	769.34052	10.06870	-644.36920	-708.71387	7.99418	496.06738	733.13953	6.65761	505.21774	-14.15663	1308.16614	-961.90436	
4733	47.320	-800.51233	8.96920	-638.90778	769.40436	10.07233	-644.39917	-708.76685	8.07850	496.02484	733.18768	6.73163	505.24551	-14.20407	1308.19800	-961.78198	
4734	47.330	-800.47247	8.96136	-638.95630	769.41614	10.10824	-644.39679	-708.80212	8.03313	496.05414	733.20331	6.75927	505.22806	-14.18575	1308.24902	-961.58008	
4735	47.340	-800.48907	8.90366	-639.02979	769.40326	10.07139	-644.41394	-708.72888	7.97750	496.07773	733.20728	6.73144	505.21185	-14.20998	1308.14246	-961.41949	
4736	47.350	-800.43256	8.93940	-638.98389	769.40808	10.05503	-644.35870	-708.70648	7.94525	496.08383	733.19806	6.68012	505.24423	-14.20213	1308.16919	-961.37274	
4737	47.360	-800.44086	8.99909	-638.93451	769.39551	10.05599	-644.38287	-708.69635	7.91671	496.08752	733.19366	6.67815	505.25235	-14.24425	1308.20850	-961.36194	
4738	47.370	-800.48175	9.09261	-638.91498	769.44165	10.10330	-644.34442	-708.71881	7.92937	496.09613	733.23572	6.70145	505.25607	-14.28936	1308.26636	-961.43884	
4739	47.380	-800.49597	9.04902	-638.88483	769.38409	10.14822	-644.41022	-708.68561	7.87251	496.13876	733.21350	6.70080	505.23697	-14.28524	1308.31689	-961.48962	
4740	47.390	-800.45355	9.01362	-638.95282	769.40076	10.11212	-644.42340	-708.57245	7.70609	496.14383	733.28119	6.76737	505.25531	-14.25664	1308.27014	-961.48071	
4741	47.400	-800.41937	8.93906	-639.00140	769.41052	10.05680	-644.40173	-708.55109	7.68689	496.08859	733.23761	6.74957	505.22375	-14.24469	1308.22229	-961.47797	
4742	47.410	-800.48059	8.95089	-639.05524	769.40076	10.02989	-644.40924	-708.52429	7.64100	496.07132	733.18762	6.70620	505.22946	-14.17238	1308.14661	-961.61548	
4743	47.420	-800.48035	9.01566	-638.98077	769.39783	10.03764	-644.36847	-708.57166	7.74931	496.09552	733.17554	6.72004	505.22195	-14.21763	1308.19629	-961.77551	
4744	47.430	-800.48651	9.03983	-638.89679	769.41913	10.04958	-644.36389	-708.54370	7.68746	496.13412	733.24597	6.77875	505.23022	-14.11420	1308.24719	-961.98737	
4745	47.440	-800.50940	8.99991	-638.92670	769.34607	10.13303	-644.38416	-708.56091	7.69753	496.11993	733.31073	6.77927	505.23416	-14.12200	1308.26782	-962.12036	
4746	47.450	-800.46436	9.00041	-638.92963	769.38641	10.14494	-644.41937	-708.53027	7.68758	496.14734	733.22552	6.73076	505.24359	-14.04170	1308.29443	-962.12988	
4747	47.460	-800.47516	8.92479	-638.99500	769.42426	10.09372	-644.39783	-708.49829	7.59428	496.09390	733.16431	6.65363	505.22177	-14.09929	1308.26672	-961.98926	
4748	47.470	-800.44073	9.02942	-638.89294	769.39453	10.14931	-644.42664	-708.51031	7.73288	496.12787	733.15894	6.63473	505.22418	-14.11782	1308.29736	-961.77490	
4749	47.480	-800.44092	9.19538	-638.88879	769.37354	10.27255	-644.44031	-708.57507	7.83272	496.12167	733.14630	6.66470	505.24155	-14.23259	1308.23230	-961.49097	
4750	47.490	-800.47729	9.18332	-638.79468	769.36139	10.36438	-644.40277	-708.59778	7.81671	496.11783	733.17889	6.65865	505.26022	-14.33536	1308.20911	-961.26569	
4751	47.500	-800.55768	8.77252	-638.97894	769.39783	10.11194	-644.43195	-708.60590	7.87482	496.12729	733.30664	6.62963	505.22995	-14.18347	1308.20398	-961.12024	
4752	47.510	-800.56781	8.63972	-639.07355	769.40082	10.00274	-644.36389	-708.61334	7.89788	496.11804	733.31561	6.80600	505.22305	-14.42703	1308.12585	-961.04633	
4753	47.520	-800.51227	8.63855	-639.05774	769.36780	10.00010	-644.38171	-708.54590	7.75152	496.05807	733.29163	6.78109	505.23035	-14.15655	1308.06030	-961.19623	
4754	47.530	-800.51953	8.81408	-639.02582	769.40851	10.15836	-644.43652	-708.58667	7.75491	496.08493	733.33673	6.75031	505.22717	-13.99427	1308.07458	-961.58862	
4755	47.540	-800.48651	9.13187	-638.81714	769.40881	10.20463	-644.41608	-708.58307	7.86128	496.14172	733.30090	6.78420	505.23322	-14.01704	1308.15161	-962.06580	
4756	47.550	-800.47681	9.07478	-638.83600	769.39880	10.22671	-644.44922	-708.58368	7.86286	496.10596	732.80646	6.29259	505.21497	-14.05710	1308.22852	-962.39368	
4757	47.560	-800.56708	8.90216	-638.92609	769.38232	10.17635	-644.40198	-708.63861	7.94249	496.08844	733.38959	6.72913	505.69220	-13.98231	1308.27393	-962.49988	
4758	47.570	-800.53845	8.74012	-639.03351	769.36603	10.17382	-644.41321	-708.67352	7.81156	496.07251	733.40289	6.78451	505.65121	-13.88593	1308.27197	-962.51361	
4759	47.580	-800.51099	8.85615	-639.01752	769.38116	10.12835	-644.41791	-708.57739	7.68340	496.10666	733.20050	6.59723	505.44284	-13.94132	1308.18225	-962.43549	
4760	47.590	-800.48450	9.04163	-638.88013	769.40143	10.14177	-644.35474	-708.61090	7.82227	496.17215	733.21387	6.60296	505.29367	-14.00225	1308.16589	-962.19226	
4761	47.600	-800.51740	9.02093	-638.81750	769.42749	10.25346	-644.42419	-708.60345	7.89702	496.15790	733.28809	6.64760	505.35583	-14.08508	1308.23547	-961.87146	
4762	47.610	-800.51221	8.92199	-638.84839	769.36792	10.28787	-644.45844	-708.60815	7.95733	496.09970	732.88379	6.42503	504.98157	-14.24325	1308.16858	-961.37836	
